#!OML:ASF H:\Dans Jumps\Project 1\Capture day 1\Session 1\subject.ASF
:FULLY-SPECIFIED
:DEGREES
78
root 0.243659 17.5079 -14.3525 8.87851 -0.460692 -1.3859
lowerback 2.98797 -0.100445 -0.240742
upperback 6.52038 -0.203466 1.74123
thorax 5.07383 -0.163802 1.93553
lowerneck -11.8449 0.497068 -1.30269
upperneck 34.4006 0.910162 0.441847
head 13.5788 0.283736 0.539556
rclavicle 4.96962e-016 -1.78906e-015
rhumerus -31.0828 -8.71561 -80.561
rradius 37.3656
rwrist 18.3853
rhand -21.0343 -27.641
rfingers 7.12502
rthumb 5.34118 -57.5537
lclavicle 4.96962e-016 -1.78906e-015
lhumerus -26.9207 -3.60932 87.4402
lradius 28.8895
lwrist 14.7773
lhand -26.5099 -4.29239
lfingers 7.12502
lthumb 0.0533149 25.6873
rfemur -21.9007 -3.07196 19.8973
rtibia 27.6005
rfoot -13.3925 -3.7806
rtoes 8.79939
lfemur -20.8861 7.20647 -18.9672
ltibia 25.2137
lfoot -11.2414 4.53147
ltoes 4.63425
79
root 0.244811 17.5068 -14.352 8.8813 -0.469346 -1.38707
lowerback 2.99769 -0.100127 -0.243543
upperback 6.52952 -0.203165 1.74263
thorax 5.078 -0.163916 1.93861
lowerneck -11.8519 0.49623 -1.30838
upperneck 34.378 0.908005 0.448559
head 13.5703 0.283057 0.542783
rclavicle 5.96354e-016 -8.54774e-015
rhumerus -31.0832 -8.7298 -80.5412
rradius 37.333
rwrist 18.407
rhand -21.0243 -27.6366
rfingers 7.12502
rthumb 5.3509 -57.549
lclavicle 5.96354e-016 -8.54774e-015
lhumerus -26.9412 -3.62662 87.4422
lradius 28.8844
lwrist 14.7838
lhand -26.5066 -4.29561
lfingers 7.12502
lthumb 0.0564569 25.6841
rfemur -21.9218 -3.06973 19.8948
rtibia 27.6352
rfoot -13.404 -3.78124
rtoes 8.76355
lfemur -20.9062 7.20848 -18.9706
ltibia 25.253
lfoot -11.2591 4.54339
ltoes 4.62664
80
root 0.245942 17.5057 -14.3516 8.88433 -0.477467 -1.38986
lowerback 3.00769 -0.10075 -0.246201
upperback 6.53854 -0.204187 1.74582
thorax 5.08196 -0.164732 1.94345
lowerneck -11.8568 0.496109 -1.31309
upperneck 34.3558 0.908311 0.450257
head 13.5615 0.282914 0.544198
rclavicle 5.36719e-015 -1.55052e-014
rhumerus -31.084 -8.74803 -80.5171
rradius 37.294
rwrist 18.4374
rhand -21.0167 -27.6275
rfingers 7.12502
rthumb 5.35819 -57.5397
lclavicle 5.36719e-015 -1.55052e-014
lhumerus -26.9634 -3.63549 87.4435
lradius 28.8745
lwrist 14.7854
lhand -26.5333 -4.3036
lfingers 7.12502
lthumb 0.0306193 25.6761
rfemur -21.9445 -3.06615 19.8941
rtibia 27.6725
rfoot -13.4172 -3.78312
rtoes 8.73097
lfemur -20.929 7.21303 -18.9726
ltibia 25.2956
lfoot -11.2781 4.55471
ltoes 4.61058
81
root 0.247038 17.5044 -14.3513 8.88674 -0.485664 -1.3912
lowerback 3.02115 -0.102776 -0.25202
upperback 6.54711 -0.207059 1.74944
thorax 5.08356 -0.166623 1.95048
lowerneck -11.8597 0.498344 -1.31404
upperneck 34.3336 0.913482 0.444749
head 13.5523 0.28441 0.54279
rclavicle 2.68359e-015 4.37326e-015
rhumerus -31.0863 -8.76832 -80.4906
rradius 37.2517
rwrist 18.4739
rhand -21.0126 -27.6266
rfingers 7.12502
rthumb 5.3622 -57.5388
lclavicle 2.68359e-015 4.37326e-015
lhumerus -26.9882 -3.6352 87.4418
lradius 28.8617
lwrist 14.7842
lhand -26.5783 -4.30217
lfingers 7.12502
lthumb -0.012789 25.6776
rfemur -21.9684 -3.06034 19.8917
rtibia 27.7125
rfoot -13.4322 -3.78769
rtoes 8.69969
lfemur -20.954 7.21916 -18.9764
ltibia 25.343
lfoot -11.3007 4.56521
ltoes 4.59842
82
root 0.248133 17.5029 -14.3512 8.88844 -0.495205 -1.39308
lowerback 3.0394 -0.105162 -0.258497
upperback 6.55473 -0.210393 1.75371
thorax 5.08146 -0.168771 1.95855
lowerneck -11.8628 0.503605 -1.30741
upperneck 34.3117 0.924914 0.428036
head 13.5434 0.288124 0.536525
rclavicle 2.98177e-016 8.94531e-015
rhumerus -31.0911 -8.794 -80.46
rradius 37.2046
rwrist 18.5177
rhand -21.0125 -27.6283
rfingers 7.12502
rthumb 5.36226 -57.5404
lclavicle 2.98177e-016 8.94531e-015
lhumerus -27.0156 -3.62928 87.4375
lradius 28.8448
lwrist 14.7814
lhand -26.6233 -4.28778
lfingers 7.12502
lthumb -0.0562116 25.692
rfemur -21.9937 -3.05146 19.8896
rtibia 27.7557
rfoot -13.4486 -3.79404
rtoes 8.67296
lfemur -20.9816 7.22642 -18.9796
ltibia 25.3962
lfoot -11.3239 4.57741
ltoes 4.58306
83
root 0.249306 17.5013 -14.3512 8.88806 -0.503815 -1.39598
lowerback 3.06327 -0.108995 -0.263839
upperback 6.56282 -0.21566 1.75883
thorax 5.07676 -0.17184 1.96683
lowerneck -11.8663 0.509923 -1.29953
upperneck 34.2892 0.939332 0.406104
head 13.5344 0.292605 0.528408
rclavicle -3.97569e-016 -1.27222e-014
rhumerus -31.0974 -8.82313 -80.4261
rradius 37.1564
rwrist 18.5616
rhand -21.0116 -27.644
rfingers 7.12502
rthumb 5.36313 -57.5561
lclavicle -3.97569e-016 -1.27222e-014
lhumerus -27.0431 -3.61008 87.43
lradius 28.8204
lwrist 14.772
lhand -26.6606 -4.28224
lfingers 7.12502
lthumb -0.0923017 25.6975
rfemur -22.0192 -3.04277 19.8883
rtibia 27.8033
rfoot -13.4672 -3.80235
rtoes 8.64079
lfemur -21.0114 7.23297 -18.982
ltibia 25.4567
lfoot -11.349 4.59048
ltoes 4.56821
84
root 0.250549 17.4995 -14.3514 8.88627 -0.511537 -1.39837
lowerback 3.09338 -0.113516 -0.269216
upperback 6.57117 -0.221792 1.76362
thorax 5.06881 -0.175315 1.97479
lowerneck -11.8744 0.517386 -1.28624
upperneck 34.2681 0.956353 0.377496
head 13.527 0.298016 0.517112
rclavicle -3.77691e-015 5.1684e-015
rhumerus -31.1052 -8.86305 -80.3878
rradius 37.1057
rwrist 18.61
rhand -21.0072 -27.6682
rfingers 7.12502
rthumb 5.36739 -57.5802
lclavicle -3.77691e-015 5.1684e-015
lhumerus -27.0744 -3.57833 87.4185
lradius 28.7933
lwrist 14.7576
lhand -26.6784 -4.28408
lfingers 7.12502
lthumb -0.109514 25.6956
rfemur -22.0466 -3.03541 19.8864
rtibia 27.8564
rfoot -13.4874 -3.81082
rtoes 8.61397
lfemur -21.0447 7.23873 -18.9853
ltibia 25.5257
lfoot -11.3759 4.60405
ltoes 4.55015
